#!OML:ASF I:\Actors\actors\Patient Classification 2\Patient 1\Session 1\actor1.ASF
:FULLY-SPECIFIED
:DEGREES
611
root -0.562432 18.7399 5.57808 10.4089 3.15145 -0.813728
lowerback 25.2671 -2.31163 2.96524
upperback 1.24804 -2.96371 -5.74787
thorax -13.2762 -1.78411 -7.28592
lowerneck -11.5083 -1.78605 -3.64416
upperneck -10.9701 -3.2332 -19.5201
head -1.56698 -1.24833 -5.47003
rclavicle 2.94201e-014 -6.36111e-015
rhumerus 34.5017 26.526 -50.0573
rradius 134.364
rwrist 14.493
rhand -20.2111 -29.6932
rfingers 7.12502
rthumb 6.13603 300.416
lclavicle 2.94201e-014 -6.36111e-015
lhumerus -36.4486 -16.8277 87.3636
lradius 119.183
lwrist -2.08851
lhand -1.9918 -7.19319
lfingers 7.12502
lthumb 23.6813 21.3681
rfemur -6.38081 -0.524071 14.6182
rtibia 7.34504
rfoot -20.1419 -14.6868
rtoes -8.4112
lfemur -21.0104 -1.42097 -12.8161
ltibia 28.4777
lfoot -17.7483 5.03959
ltoes -56.2145
612
root -0.557619 18.741 5.58434 10.4317 3.25193 -0.8362
lowerback 25.1842 -2.24995 3.00343
upperback 1.19317 -2.85764 -5.62915
thorax -13.2724 -1.73392 -7.20809
lowerneck -11.4807 -1.65605 -3.52271
upperneck -11.416 -3.13434 -19.2708
head -1.69693 -1.16891 -5.41064
rclavicle -1.82882e-014 -3.18055e-014
rhumerus 34.1465 26.6838 -50.1101
rradius 134.602
rwrist 14.1405
rhand -19.9293 -30.1968
rfingers 7.12502
rthumb 6.40807 299.92
lclavicle -1.82882e-014 -3.18055e-014
lhumerus -36.5278 -16.9361 87.6102
lradius 119.215
lwrist -2.08431
lhand -2.00729 -7.04882
lfingers 7.12502
lthumb 23.6664 21.5144
rfemur -6.32063 -0.62248 14.6431
rtibia 7.25799
rfoot -20.1018 -14.7248
rtoes -8.62027
lfemur -21.0379 -1.47353 -12.798
ltibia 28.4944
lfoot -17.7307 4.97632
ltoes -56.1859
613
root -0.553514 18.7425 5.59111 10.4644 3.33763 -0.871706
lowerback 25.0874 -2.18561 3.05717
upperback 1.14451 -2.74815 -5.54274
thorax -13.2561 -1.68432 -7.17866
lowerneck -11.4264 -1.52606 -3.21851
upperneck -11.9236 -3.0774 -19.1827
head -1.85348 -1.10971 -5.43514
rclavicle -1.27222e-014 1.27222e-014
rhumerus 33.7492 26.7789 -50.2579
rradius 134.874
rwrist 13.6428
rhand -19.5478 -30.5536
rfingers 7.12502
rthumb 6.77639 299.575
lclavicle -1.27222e-014 1.27222e-014
lhumerus -36.565 -17.0608 87.7687
lradius 119.228
lwrist -2.09007
lhand -2.02512 -7.01853
lfingers 7.12502
lthumb 23.6493 21.5469
rfemur -6.30169 -0.704292 14.6846
rtibia 7.21547
rfoot -20.0811 -14.8031
rtoes -9.03299
lfemur -21.0782 -1.47819 -12.7673
ltibia 28.5186
lfoot -17.7198 4.89806
ltoes -56.1741
614
root -0.548988 18.7423 5.59625 10.5134 3.43078 -0.850451
lowerback 24.99 -2.11953 3.05441
upperback 1.08642 -2.65389 -5.46404
thorax -13.2508 -1.63886 -7.11928
lowerneck -11.2496 -1.39721 -2.85037
upperneck -12.5086 -3.06181 -19.2183
head -2.05671 -1.06026 -5.51063
rclavicle 2.78299e-014 3.81667e-014
rhumerus 33.3571 26.7265 -50.5162
rradius 135.018
rwrist 13.1955
rhand -19.3666 -29.7955
rfingers 7.12502
rthumb 6.9513 300.339
lclavicle 2.78299e-014 3.81667e-014
lhumerus -36.6131 -17.1863 87.8993
lradius 119.26
lwrist -2.023
lhand -1.98637 -7.02622
lfingers 7.12502
lthumb 23.6865 21.5344
rfemur -6.28902 -0.80638 14.6599
rtibia 7.1538
rfoot -20.0792 -14.8358
rtoes -9.26664
lfemur -21.1546 -1.50479 -12.8024
ltibia 28.5614
lfoot -17.7172 4.87898
ltoes -56.2729
615
root -0.544983 18.7408 5.59867 10.601 3.55673 -0.854658
lowerback 24.8585 -2.05061 3.06481
upperback 1.01723 -2.54674 -5.34211
thorax -13.236 -1.58629 -7.02116
lowerneck -11.1056 -1.27299 -2.69704
upperneck -12.9959 -2.99389 -19.0835
head -2.22077 -0.989445 -5.49483
rclavicle -1.43125e-014 -4.45278e-014
rhumerus 32.979 26.8775 -50.554
rradius 135.229
rwrist 13.3931
rhand -19.5027 -30.261
rfingers 7.12502
rthumb 6.8199 299.869
lclavicle -1.43125e-014 -4.45278e-014
lhumerus -36.6675 -17.3076 88.0934
lradius 119.32
lwrist -1.97103
lhand -1.91969 -7.03467
lfingers 7.12502
lthumb 23.7504 21.5176
rfemur -6.31449 -0.93857 14.6754
rtibia 7.06608
rfoot -20.0543 -14.8372
rtoes -9.07838
lfemur -21.308 -1.55593 -12.7943
ltibia 28.6171
lfoot -17.7029 4.82306
ltoes -56.3222
616
root -0.542552 18.7407 5.60007 10.6939 3.7217 -0.995647
lowerback 24.7238 -2.00998 3.19437
upperback 0.958432 -2.43727 -5.17927
thorax -13.2101 -1.5379 -6.94582
lowerneck -11.0713 -1.12971 -2.50013
upperneck -13.4162 -2.88078 -18.9643
head -2.34277 -0.91015 -5.49257
rclavicle 1.59028e-015 -1.43125e-014
rhumerus 32.6056 27.0401 -50.6119
rradius 135.446
rwrist 13.6922
rhand -19.5738 -30.5876
rfingers 7.12502
rthumb 6.75131 299.54
lclavicle 1.59028e-015 -1.43125e-014
lhumerus -36.7182 -17.4195 88.2842
lradius 119.342
lwrist -1.99214
lhand -1.99252 -7.12734
lfingers 7.12502
lthumb 23.6806 21.434
rfemur -6.37303 -1.08126 14.8617
rtibia 7.00753
rfoot -19.9982 -14.8602
rtoes -8.97454
lfemur -21.492 -1.61918 -12.6135
ltibia 28.6721
lfoot -17.6909 4.77813
ltoes -56.3165
617
root -0.53917 18.7421 5.60401 10.7342 3.88649 -1.09246
lowerback 24.6482 -1.99234 3.29277
upperback 0.916701 -2.3704 -5.04915
thorax -13.2039 -1.50852 -6.87534
lowerneck -11.0392 -0.954169 -2.21241
upperneck -13.8328 -2.73603 -18.9177
head -2.45995 -0.819585 -5.52946
rclavicle 2.38542e-014 2.38542e-014
rhumerus 32.3011 27.0962 -50.7701
rradius 135.642
rwrist 13.5367
rhand -19.4931 -30.3505
rfingers 7.12502
rthumb 6.82911 299.78
lclavicle 2.38542e-014 2.38542e-014
lhumerus -36.7543 -17.5113 88.4266
lradius 119.335
lwrist -1.95629
lhand -2.12518 -7.1907
lfingers 7.12502
lthumb 23.5533 21.3871
rfemur -6.36237 -1.22836 14.9904
rtibia 6.96166
rfoot -19.9871 -14.8777
rtoes -9.08701
lfemur -21.5913 -1.71248 -12.4934
ltibia 28.7211
lfoot -17.6859 4.77513
ltoes -56.3125
618
root -0.534598 18.7435 5.60882 10.7684 4.01299 -1.07022
lowerback 24.5821 -1.95904 3.28514
upperback 0.874674 -2.31789 -4.95677
thorax -13.2032 -1.48069 -6.78149
lowerneck -11.0141 -0.783729 -2.02343
upperneck -14.2067 -2.5753 -18.8249
head -2.56191 -0.721832 -5.53457
rclavicle -1.43125e-014 9.54166e-015
rhumerus 31.9554 27.1194 -51.025
rradius 135.775
rwrist 13.0048
rhand -19.4628 -29.535
rfingers 7.12502
rthumb 6.85845 300.596
lclavicle -1.43125e-014 9.54166e-015
lhumerus -36.7109 -17.569 88.5668
lradius 119.313
lwrist -1.92203
lhand -2.12439 -7.11394
lfingers 7.12502
lthumb 23.5541 21.4637
rfemur -6.32731 -1.36184 14.9709
rtibia 6.89951
rfoot -20.0306 -14.8684
rtoes -8.91585
lfemur -21.6608 -1.74667 -12.5285
ltibia 28.7614
lfoot -17.6482 4.71894
ltoes -56.2966
619
root -0.529939 18.7434 5.61217 10.8165 4.12301 -1.05295
lowerback 24.5091 -1.92223 3.28041
upperback 0.820853 -2.25939 -4.85639
thorax -13.2116 -1.45055 -6.68243
lowerneck -10.9848 -0.602815 -1.81763
upperneck -14.5835 -2.40531 -18.7769
head -2.66425 -0.619619 -5.55759
rclavicle -1.98785e-014 -2.38542e-014
rhumerus 31.6129 27.4983 -51.08
rradius 136.091
rwrist 12.9159
rhand -19.6111 -30.7016
rfingers 7.12502
rthumb 6.71528 299.425
lclavicle -1.98785e-014 -2.38542e-014
lhumerus -36.7425 -17.6014 88.7063
lradius 119.323
lwrist -1.96616
lhand -2.06239 -7.10189
lfingers 7.12502
lthumb 23.6136 21.4681
rfemur -6.31987 -1.47942 14.9546
rtibia 6.84132
rfoot -20.0248 -14.8799
rtoes -8.64917
lfemur -21.7525 -1.72584 -12.5603
ltibia 28.7904
lfoot -17.6093 4.62907
ltoes -56.2695
620
root -0.525114 18.7431 5.61509 10.8562 4.2383 -1.05061
lowerback 24.4608 -1.88195 3.30651
upperback 0.757016 -2.1885 -4.76168
thorax -13.2453 -1.4181 -6.61339
lowerneck -10.9074 -0.418653 -1.52586
upperneck -14.9661 -2.24721 -18.7892
head -2.77624 -0.523957 -5.6153
rclavicle -9.54166e-015 1.11319e-014
rhumerus 31.2233 27.6083 -51.3346
rradius 136.289
rwrist 12.2227
rhand -19.3577 -30.2964
rfingers 7.12502
rthumb 6.95989 299.838
lclavicle -9.54166e-015 1.11319e-014
lhumerus -36.8725 -17.6709 88.8793
lradius 119.348
lwrist -2.03716
lhand -2.07586 -7.22721
lfingers 7.12502
lthumb 23.6006 21.3445
rfemur -6.30348 -1.59837 14.9567
rtibia 6.78158
rfoot -19.9691 -14.9233
rtoes -8.68246
lfemur -21.8353 -1.74048 -12.5696
ltibia 28.8197
lfoot -17.5935 4.56291
ltoes -56.2718
621
root -0.520779 18.743 5.61813 10.9061 4.35099 -1.0645
lowerback 24.4053 -1.82818 3.32718
upperback 0.683647 -2.09993 -4.65403
thorax -13.283 -1.37697 -6.5325
lowerneck -10.8496 -0.296394 -1.38195
upperneck -15.2347 -2.12336 -18.6434
head -2.85524 -0.451738 -5.59533
rclavicle 2.18663e-014 7.95139e-015
rhumerus 30.7657 27.9282 -51.5274
rradius 136.538
rwrist 12.4843
rhand -18.9764 -31.0121
rfingers 7.12502
rthumb 7.32792 299.135
lclavicle 2.18663e-014 7.95139e-015
lhumerus -36.9304 -17.7519 89.1076
lradius 119.316
lwrist -2.04547
lhand -2.09889 -7.27001
lfingers 7.12502
lthumb 23.5785 21.3045
rfemur -6.27906 -1.7118 14.981
rtibia 6.69245
rfoot -19.9732 -14.9062
rtoes -8.46101
lfemur -21.9246 -1.79283 -12.5526
ltibia 28.855
lfoot -17.5869 4.51675
ltoes -56.2924
